<?xml version="1.0" standalone="no"?>
<!DOCTYPE svg PUBLIC "-//W3C//DTD SVG 20010904//EN"
 "http://www.w3.org/TR/2001/REC-SVG-20010904/DTD/svg10.dtd">
<svg version="1.0" xmlns="http://www.w3.org/2000/svg"
 width="1024.000000pt" height="1024.000000pt" viewBox="0 0 1024.000000 1024.000000"
 preserveAspectRatio="xMidYMid meet">

<g transform="translate(0.000000,1024.000000) scale(0.100000,-0.100000)"
fill="#000000" stroke="none">
<path d="M4750 9263 c0 -5 24 -7 52 -5 89 5 97 9 21 11 -40 0 -73 -2 -73 -6z"/>
<path d="M4967 9258 c-6 -4 78 -4 188 -1 110 3 202 8 205 10 8 8 -380 -1 -393
-9z"/>
<path d="M4663 9253 c15 -2 37 -2 50 0 12 2 0 4 -28 4 -27 0 -38 -2 -22 -4z"/>
<path d="M5433 9253 c9 -2 23 -2 30 0 6 3 -1 5 -18 5 -16 0 -22 -2 -12 -5z"/>
<path d="M4563 9243 c9 -2 25 -2 35 0 9 3 1 5 -18 5 -19 0 -27 -2 -17 -5z"/>
<path d="M4868 9243 c18 -2 45 -2 60 0 15 2 0 4 -33 4 -33 0 -45 -2 -27 -4z"/>
<path d="M4493 9233 c9 -2 23 -2 30 0 6 3 -1 5 -18 5 -16 0 -22 -2 -12 -5z"/>
<path d="M4783 9233 c9 -2 25 -2 35 0 9 3 1 5 -18 5 -19 0 -27 -2 -17 -5z"/>
<path d="M4413 9223 c9 -2 23 -2 30 0 6 3 -1 5 -18 5 -16 0 -22 -2 -12 -5z"/>
<path d="M4630 9217 c-36 -6 -58 -12 -50 -14 8 -1 51 3 95 11 44 7 67 14 50
14 -16 -1 -59 -5 -95 -11z"/>
<path d="M4295 9210 c-42 -11 -1 -11 50 -1 34 7 35 9 10 9 -16 0 -43 -4 -60
-8z"/>
<path d="M4228 9193 c7 -3 16 -2 19 1 4 3 -2 6 -13 5 -11 0 -14 -3 -6 -6z"/>
<path d="M4528 9193 c6 -2 18 -2 25 0 6 3 1 5 -13 5 -14 0 -19 -2 -12 -5z"/>
<path d="M4178 9183 c6 -2 18 -2 25 0 6 3 1 5 -13 5 -14 0 -19 -2 -12 -5z"/>
<path d="M4440 9180 c-20 -6 -21 -8 -5 -8 11 0 34 4 50 8 27 7 27 8 5 8 -14 0
-36 -4 -50 -8z"/>
<path d="M4128 9173 c6 -2 18 -2 25 0 6 3 1 5 -13 5 -14 0 -19 -2 -12 -5z"/>
<path d="M4088 9163 c7 -3 16 -2 19 1 4 3 -2 6 -13 5 -11 0 -14 -3 -6 -6z"/>
<path d="M4330 9155 c-25 -7 -36 -13 -25 -13 11 0 38 5 60 13 52 17 24 17 -35
0z"/>
<path d="M4038 9153 c6 -2 18 -2 25 0 6 3 1 5 -13 5 -14 0 -19 -2 -12 -5z"/>
<path d="M3998 9143 c7 -3 16 -2 19 1 4 3 -2 6 -13 5 -11 0 -14 -3 -6 -6z"/>
<path d="M6799 8979 c-157 -139 -644 -567 -786 -690 l-33 -28 1 -833 c1 -458
5 -1156 8 -1550 l6 -718 140 107 c241 183 677 535 818 659 l47 42 0 1579 0
1578 87 -95 c49 -52 170 -181 271 -287 l182 -193 -2 -1054 -3 -1054 45 38 c25
21 61 56 80 77 l35 38 -3 975 -3 975 -147 125 c-80 69 -230 199 -332 290 -102
91 -193 171 -202 178 -13 11 -43 -12 -209 -159z"/>
<path d="M3930 9130 c-21 -7 -21 -8 -5 -9 11 0 27 4 35 9 18 11 5 11 -30 0z"/>
<path d="M4205 9125 c-22 -8 -31 -13 -20 -13 11 0 38 5 60 13 22 7 31 13 20
13 -11 0 -38 -6 -60 -13z"/>
<path d="M3855 9110 c-13 -5 -14 -9 -5 -9 8 0 24 4 35 9 13 5 14 9 5 9 -8 0
-24 -4 -35 -9z"/>
<path d="M4075 9085 c-38 -12 -66 -23 -62 -24 12 -1 147 40 147 45 0 7 -13 4
-85 -21z"/>
<path d="M3808 9093 c7 -3 16 -2 19 1 4 3 -2 6 -13 5 -11 0 -14 -3 -6 -6z"/>
<path d="M3681 9059 c-18 -6 -31 -12 -29 -14 5 -5 78 14 78 20 0 6 -8 5 -49
-6z"/>
<path d="M3595 9030 c-11 -5 -69 -28 -128 -51 -60 -22 -106 -43 -104 -45 2 -2
49 13 103 35 54 21 117 46 139 54 22 9 33 16 25 16 -8 0 -24 -4 -35 -9z"/>
<path d="M3870 9020 c-18 -12 -2 -12 25 0 13 6 15 9 5 9 -8 0 -22 -4 -30 -9z"/>
<path d="M3820 9000 c-8 -5 -10 -10 -5 -10 6 0 17 5 25 10 8 5 11 10 5 10 -5
0 -17 -5 -25 -10z"/>
<path d="M3755 8975 c-25 -12 -26 -14 -5 -9 28 7 60 23 45 23 -5 0 -23 -6 -40
-14z"/>
<path d="M3645 8930 c-33 -16 -55 -29 -50 -29 6 0 37 13 70 29 33 15 56 28 50
28 -5 0 -37 -12 -70 -28z"/>
<path d="M3245 8885 c-38 -18 -67 -34 -64 -34 4 -1 40 14 80 33 41 19 70 35
64 35 -5 0 -41 -15 -80 -34z"/>
<path d="M3550 8890 c-8 -5 -10 -10 -5 -10 6 0 17 5 25 10 8 5 11 10 5 10 -5
0 -17 -5 -25 -10z"/>
<path d="M3480 8855 c-25 -13 -41 -24 -37 -25 11 0 87 39 87 45 0 7 0 7 -50
-20z"/>
<path d="M3110 8820 c-9 -6 -10 -10 -3 -10 6 0 15 5 18 10 8 12 4 12 -15 0z"/>
<path d="M3385 8810 c-3 -5 -2 -10 4 -10 5 0 13 5 16 10 3 6 2 10 -4 10 -5 0
-13 -4 -16 -10z"/>
<path d="M3040 8785 c-14 -8 -20 -14 -14 -15 5 0 19 7 30 15 24 18 16 19 -16
0z"/>
<path d="M3318 8774 c-27 -13 -48 -27 -48 -29 0 -3 23 6 50 20 28 14 50 28 50
30 0 7 1 7 -52 -21z"/>
<path d="M2965 8745 c-22 -13 -37 -25 -33 -25 9 0 78 41 78 46 0 6 -3 5 -45
-21z"/>
<path d="M3143 8677 c-56 -34 -108 -68 -115 -75 -7 -7 37 16 97 52 136 81 142
85 130 85 -5 -1 -56 -28 -112 -62z"/>
<path d="M2878 8700 c-20 -11 -40 -25 -43 -31 -8 -12 39 11 70 35 27 21 18 19
-27 -4z"/>
<path d="M2748 8619 c-38 -22 -68 -43 -68 -46 0 -3 10 1 23 9 12 8 43 27 70
42 40 24 56 36 45 36 -2 0 -33 -18 -70 -41z"/>
<path d="M4163 8593 c15 -2 39 -2 55 0 15 2 2 4 -28 4 -30 0 -43 -2 -27 -4z"/>
<path d="M2984 8574 c-18 -14 -18 -15 4 -4 12 6 22 13 22 15 0 8 -5 6 -26 -11z"/>
<path d="M2888 8509 c-38 -27 -68 -52 -68 -54 0 -3 32 18 70 46 60 43 79 60
68 59 -2 -1 -33 -23 -70 -51z"/>
<path d="M2586 8515 c-61 -42 -82 -63 -36 -36 36 21 99 70 90 70 -3 0 -27 -15
-54 -34z"/>
<path d="M2489 8443 c-13 -16 -12 -17 4 -4 16 13 21 21 13 21 -2 0 -10 -8 -17
-17z"/>
<path d="M2728 8389 c-43 -33 -78 -62 -78 -65 0 -3 36 23 80 57 71 55 87 69
78 69 -2 0 -38 -27 -80 -61z"/>
<path d="M2384 8367 c-98 -76 -147 -117 -140 -117 3 0 41 28 84 63 43 34 94
74 113 89 19 15 32 27 29 27 -3 1 -41 -27 -86 -62z"/>
<path d="M2599 8282 l-34 -37 35 30 c19 17 37 31 39 33 2 1 2 4 -1 7 -2 3 -20
-12 -39 -33z"/>
<path d="M2423 8123 c-89 -87 -98 -98 -29 -34 143 133 171 161 165 161 -3 0
-64 -57 -136 -127z"/>
<path d="M2199 8213 l-24 -28 28 24 c25 23 32 31 24 31 -2 0 -14 -12 -28 -27z"/>
<path d="M1997 8029 c-87 -83 -156 -153 -154 -155 2 -3 51 42 108 98 57 57
130 127 161 156 31 28 54 52 49 52 -4 0 -78 -68 -164 -151z"/>
<path d="M5420 8056 c0 -2 8 -10 18 -17 15 -13 16 -12 3 4 -13 16 -21 21 -21
13z"/>
<path d="M2244 7948 l-29 -33 33 29 c17 17 32 31 32 33 0 8 -8 1 -36 -29z"/>
<path d="M2179 7873 l-34 -38 38 34 c20 19 37 36 37 38 0 8 -8 0 -41 -34z"/>
<path d="M1786 7810 c-25 -27 -46 -52 -46 -56 0 -4 1 -5 3 -3 2 2 25 28 52 57
26 28 45 52 43 52 -3 0 -26 -22 -52 -50z"/>
<path d="M2111 7797 l-25 -32 32 29 c33 31 37 36 25 35 -5 0 -19 -14 -32 -32z"/>
<path d="M2024 7688 c-77 -98 -81 -103 -69 -96 12 7 138 168 132 168 -3 0 -31
-33 -63 -72z"/>
<path d="M1683 7693 c-78 -95 -145 -183 -139 -183 3 0 40 44 82 98 42 53 84
105 92 115 8 9 13 17 9 17 -3 0 -23 -21 -44 -47z"/>
<path d="M1877 7488 c-35 -51 -72 -106 -82 -123 -34 -55 1 -11 66 83 35 51 70
102 78 113 7 10 11 19 8 19 -3 0 -35 -42 -70 -92z"/>
<path d="M1500 7455 c-17 -25 -29 -45 -26 -45 3 0 19 20 36 45 17 25 29 45 26
45 -3 0 -19 -20 -36 -45z"/>
<path d="M1440 7369 c-12 -16 -21 -32 -18 -34 2 -2 13 12 26 31 28 42 21 45
-8 3z"/>
<path d="M4914 7336 c-39 -34 -196 -173 -350 -310 -153 -137 -351 -314 -439
-392 l-160 -143 3 -2719 2 -2720 23 -5 c12 -2 92 -25 177 -50 240 -70 456
-110 763 -141 l57 -6 0 1319 c0 726 -3 1322 -7 1324 -5 3 -6 135 -4 294 3 158
7 1023 10 1921 l6 1634 215 -238 c118 -130 236 -261 263 -290 l47 -52 -2 -956
c-2 -526 -1 -956 0 -956 2 0 39 21 83 47 l79 48 0 920 -1 920 -241 210 c-133
116 -289 253 -347 306 l-107 96 -70 -61z"/>
<path d="M1755 7304 c-9 -15 -12 -23 -6 -20 11 7 35 46 28 46 -3 0 -12 -12
-22 -26z"/>
<path d="M1384 7288 c-4 -7 -15 -24 -23 -38 -10 -15 -11 -21 -3 -16 13 7 46
66 38 66 -3 0 -8 -6 -12 -12z"/>
<path d="M1710 7230 c-6 -11 -8 -20 -6 -20 3 0 10 9 16 20 6 11 8 20 6 20 -3
0 -10 -9 -16 -20z"/>
<path d="M1330 7200 c-6 -11 -8 -20 -6 -20 3 0 10 9 16 20 6 11 8 20 6 20 -3
0 -10 -9 -16 -20z"/>
<path d="M1680 7180 c-6 -11 -8 -20 -6 -20 3 0 10 9 16 20 6 11 8 20 6 20 -3
0 -10 -9 -16 -20z"/>
<path d="M1276 7111 c-20 -32 -36 -62 -36 -67 0 -10 17 15 54 79 39 67 24 58
-18 -12z"/>
<path d="M1657 7143 c-22 -36 -108 -206 -100 -198 14 14 116 205 109 205 -3 0
-7 -3 -9 -7z"/>
<path d="M2571 7104 c0 -11 3 -14 6 -6 3 7 2 16 -1 19 -3 4 -6 -2 -5 -13z"/>
<path d="M1220 7010 c-6 -11 -8 -20 -6 -20 3 0 10 9 16 20 6 11 8 20 6 20 -3
0 -10 -9 -16 -20z"/>
<path d="M5842 6985 c0 -16 2 -22 5 -12 2 9 2 23 0 30 -3 6 -5 -1 -5 -18z"/>
<path d="M2562 6950 c0 -14 2 -19 5 -12 2 6 2 18 0 25 -3 6 -5 1 -5 -13z"/>
<path d="M1185 6949 c-4 -6 -5 -12 -2 -15 2 -3 7 2 10 11 7 17 1 20 -8 4z"/>
<path d="M1521 6882 c-32 -65 -52 -112 -47 -112 6 0 77 152 73 156 -2 2 -14
-18 -26 -44z"/>
<path d="M5841 6914 c0 -11 3 -14 6 -6 3 7 2 16 -1 19 -3 4 -6 -2 -5 -13z"/>
<path d="M1145 6870 c-14 -27 -23 -50 -20 -50 2 0 16 23 30 50 14 28 23 50 20
50 -2 0 -16 -22 -30 -50z"/>
<path d="M2561 6904 c0 -11 3 -14 6 -6 3 7 2 16 -1 19 -3 4 -6 -2 -5 -13z"/>
<path d="M1097 6775 c-24 -50 -20 -58 4 -12 11 22 19 41 17 43 -3 2 -12 -12
-21 -31z"/>
<path d="M1452 6735 c-17 -37 -14 -45 4 -12 9 16 14 31 11 33 -2 2 -9 -7 -15
-21z"/>
<path d="M1065 6709 c-4 -6 -5 -12 -2 -15 2 -3 7 2 10 11 7 17 1 20 -8 4z"/>
<path d="M1401 6609 c-17 -45 -30 -83 -28 -85 2 -2 18 33 36 77 17 45 30 83
28 85 -2 2 -18 -33 -36 -77z"/>
<path d="M997 6553 c-58 -141 -100 -254 -95 -258 2 -3 13 19 23 48 10 28 40
106 67 171 26 66 46 121 44 123 -1 2 -19 -36 -39 -84z"/>
<path d="M1336 6434 c-9 -26 -14 -49 -12 -51 2 -2 11 17 20 43 9 26 14 49 12
51 -2 2 -11 -17 -20 -43z"/>
<path d="M5726 6375 c-9 -26 -7 -32 5 -12 6 10 9 21 6 23 -2 3 -7 -2 -11 -11z"/>
<path d="M1292 6301 c-7 -21 -12 -45 -11 -52 0 -8 7 8 15 35 9 26 13 50 11 52
-2 2 -9 -13 -15 -35z"/>
<path d="M886 6265 c-3 -9 -6 -22 -5 -28 0 -7 5 -1 10 12 5 13 8 26 5 28 -2 2
-6 -3 -10 -12z"/>
<path d="M1245 6140 c-4 -17 -5 -34 -2 -36 2 -3 7 10 11 27 8 42 0 50 -9 9z"/>
<path d="M842 6123 c-15 -48 -8 -55 8 -8 7 20 10 38 8 41 -3 2 -10 -13 -16
-33z"/>
<path d="M1212 6011 c-7 -29 -12 -60 -11 -69 0 -9 7 10 15 42 8 33 13 64 11
69 -2 6 -8 -14 -15 -42z"/>
<path d="M801 5974 c0 -11 3 -14 6 -6 3 7 2 16 -1 19 -3 4 -6 -2 -5 -13z"/>
<path d="M782 5900 c0 -14 2 -19 5 -12 2 6 2 18 0 25 -3 6 -5 1 -5 -13z"/>
<path d="M1191 5904 c0 -11 3 -14 6 -6 3 7 2 16 -1 19 -3 4 -6 -2 -5 -13z"/>
<path d="M1182 5860 c0 -14 2 -19 5 -12 2 6 2 18 0 25 -3 6 -5 1 -5 -13z"/>
<path d="M765 5840 c-4 -17 -5 -34 -2 -36 3 -3 8 9 12 26 4 17 5 34 2 36 -3 3
-8 -9 -12 -26z"/>
<path d="M1172 5805 c0 -16 2 -22 5 -12 2 9 2 23 0 30 -3 6 -5 -1 -5 -18z"/>
<path d="M751 5774 c0 -11 3 -14 6 -6 3 7 2 16 -1 19 -3 4 -6 -2 -5 -13z"/>
<path d="M9422 5760 c0 -14 2 -19 5 -12 2 6 2 18 0 25 -3 6 -5 1 -5 -13z"/>
<path d="M1147 5660 c-9 -63 -17 -126 -16 -140 1 -14 10 31 20 100 11 69 18
132 16 140 -1 8 -10 -37 -20 -100z"/>
<path d="M731 5679 c-7 -38 -11 -72 -9 -75 3 -2 10 28 17 67 7 38 11 72 9 75
-3 2 -10 -28 -17 -67z"/>
<path d="M9431 5712 c-1 -8 6 -71 15 -140 9 -70 17 -139 18 -154 3 -33 16 -50
16 -20 0 25 -39 303 -45 317 -2 6 -4 4 -4 -3z"/>
<path d="M3150 5706 c0 -2 8 -10 18 -17 15 -13 16 -12 3 4 -13 16 -21 21 -21
13z"/>
<path d="M2840 5492 c-73 -64 -297 -263 -499 -442 l-366 -325 -3 -1113 -2
-1114 107 -131 c210 -256 544 -573 788 -746 50 -35 99 -72 110 -81 28 -24 75
-53 75 -47 0 3 -16 15 -35 27 l-35 22 0 2015 0 2016 43 -49 c23 -27 140 -156
260 -286 l217 -238 0 -1557 c0 -857 3 -1704 6 -1882 l7 -324 56 -24 c31 -14
66 -29 79 -34 l22 -9 0 1923 0 1923 -102 84 c-84 69 -395 335 -558 477 l-37
32 -133 -117z"/>
<path d="M712 5565 c0 -16 2 -22 5 -12 2 9 2 23 0 30 -3 6 -5 -1 -5 -18z"/>
<path d="M7645 5549 c-22 -22 -57 -54 -77 -70 l-38 -31 0 -874 c0 -854 0 -874
19 -874 11 0 47 -9 80 -19 l61 -19 0 964 c0 530 -1 964 -2 964 -2 -1 -21 -19
-43 -41z"/>
<path d="M702 5505 c0 -16 2 -22 5 -12 2 9 2 23 0 30 -3 6 -5 -1 -5 -18z"/>
<path d="M1123 5450 c0 -25 2 -35 4 -22 2 12 2 32 0 45 -2 12 -4 2 -4 -23z"/>
<path d="M685 5410 c-4 -34 -5 -63 -2 -66 3 -3 8 22 12 56 4 34 5 63 2 66 -3
3 -8 -22 -12 -56z"/>
<path d="M1113 5315 c0 -38 2 -53 4 -32 2 20 2 52 0 70 -2 17 -4 1 -4 -38z"/>
<path d="M9478 5365 c-3 -5 -6 -53 -6 -105 l0 -95 9 90 c9 91 8 128 -3 110z"/>
<path d="M673 5290 c0 -25 2 -35 4 -22 2 12 2 32 0 45 -2 12 -4 2 -4 -23z"/>
<path d="M9493 5220 c0 -30 2 -43 4 -27 2 15 2 39 0 55 -2 15 -4 2 -4 -28z"/>
<path d="M663 5175 c0 -27 2 -38 4 -22 2 15 2 37 0 50 -2 12 -4 0 -4 -28z"/>
<path d="M1104 5015 c0 -115 2 -161 3 -102 2 59 2 154 0 210 -1 56 -3 8 -3
-108z"/>
<path d="M9472 5130 c0 -14 2 -19 5 -12 2 6 2 18 0 25 -3 6 -5 1 -5 -13z"/>
<path d="M9503 5080 c0 -36 2 -50 4 -32 2 17 2 47 0 65 -2 17 -4 3 -4 -33z"/>
<path d="M654 5015 c0 -49 1 -71 3 -48 2 23 2 64 0 90 -2 26 -3 8 -3 -42z"/>
<path d="M9474 4960 c0 -74 1 -105 3 -67 2 37 2 97 0 135 -2 37 -3 6 -3 -68z"/>
<path d="M6870 4909 c-158 -116 -561 -386 -745 -500 l-140 -86 -2 -151 -2
-151 32 -6 c18 -3 140 -23 272 -45 273 -46 647 -116 688 -130 l27 -9 0 585 c0
321 -1 584 -2 584 -2 0 -59 -41 -128 -91z"/>
<path d="M9502 4980 c0 -14 2 -19 5 -12 2 6 2 18 0 25 -3 6 -5 1 -5 -13z"/>
<path d="M644 4770 c0 -63 1 -89 3 -57 2 31 2 83 0 115 -2 31 -3 5 -3 -58z"/>
<path d="M9511 4864 c0 -11 3 -14 6 -6 3 7 2 16 -1 19 -3 4 -6 -2 -5 -13z"/>
<path d="M9456 4701 c-4 -57 -5 -105 -3 -108 7 -6 20 182 15 199 -3 7 -8 -34
-12 -91z"/>
<path d="M1113 4715 c0 -38 2 -53 4 -32 2 20 2 52 0 70 -2 17 -4 1 -4 -38z"/>
<path d="M9504 4650 c0 -52 1 -74 3 -47 2 26 2 68 0 95 -2 26 -3 4 -3 -48z"/>
<path d="M653 4550 c0 -47 2 -66 4 -42 2 23 2 61 0 85 -2 23 -4 4 -4 -43z"/>
<path d="M1123 4575 c0 -27 2 -38 4 -22 2 15 2 37 0 50 -2 12 -4 0 -4 -28z"/>
<path d="M9436 4519 c-4 -33 -5 -63 -3 -66 3 -2 8 23 12 57 4 34 5 63 2 66 -2
3 -7 -23 -11 -57z"/>
<path d="M9493 4490 c0 -36 2 -50 4 -32 2 17 2 47 0 65 -2 17 -4 3 -4 -33z"/>
<path d="M1131 4489 c1 -19 5 -47 10 -64 5 -20 6 -9 2 30 -6 66 -14 88 -12 34z"/>
<path d="M663 4405 c0 -33 2 -45 4 -27 2 18 2 45 0 60 -2 15 -4 0 -4 -33z"/>
<path d="M9411 4359 c-7 -45 -10 -83 -8 -85 2 -3 10 32 17 76 7 44 11 83 8 85
-3 3 -10 -32 -17 -76z"/>
<path d="M9483 4380 c0 -25 2 -35 4 -22 2 12 2 32 0 45 -2 12 -4 2 -4 -23z"/>
<path d="M1152 4345 c0 -16 2 -22 5 -12 2 9 2 23 0 30 -3 6 -5 -1 -5 -18z"/>
<path d="M672 4300 c0 -19 3 -55 7 -80 11 -61 12 -4 1 65 -6 41 -7 44 -8 15z"/>
<path d="M9473 4285 c0 -22 2 -30 4 -17 2 12 2 30 0 40 -3 9 -5 -1 -4 -23z"/>
<path d="M1162 4285 c0 -16 2 -22 5 -12 2 9 2 23 0 30 -3 6 -5 -1 -5 -18z"/>
<path d="M9386 4224 c-4 -20 -5 -38 -3 -40 3 -3 8 11 11 32 4 20 5 38 3 40 -3
3 -8 -11 -11 -32z"/>
<path d="M1171 4235 c0 -11 6 -45 14 -75 7 -30 13 -46 14 -35 0 11 -6 45 -14
75 -7 30 -13 46 -14 35z"/>
<path d="M9462 4210 c0 -19 2 -27 5 -17 2 9 2 25 0 35 -3 9 -5 1 -5 -18z"/>
<path d="M692 4140 c0 -19 2 -27 5 -17 2 9 2 25 0 35 -3 9 -5 1 -5 -18z"/>
<path d="M9366 4134 c-4 -20 -5 -38 -3 -40 3 -3 8 11 11 32 4 20 5 38 3 40 -3
3 -8 -11 -11 -32z"/>
<path d="M9452 4145 c0 -16 2 -22 5 -12 2 9 2 23 0 30 -3 6 -5 -1 -5 -18z"/>
<path d="M5606 4105 c-75 -37 -75 -37 27 -50 l47 -6 0 45 c0 25 -1 46 -2 45
-2 0 -34 -16 -72 -34z"/>
<path d="M9442 4085 c0 -16 2 -22 5 -12 2 9 2 23 0 30 -3 6 -5 -1 -5 -18z"/>
<path d="M702 4075 c0 -16 2 -22 5 -12 2 9 2 23 0 30 -3 6 -5 -1 -5 -18z"/>
<path d="M1202 4085 c0 -11 3 -29 8 -40 11 -25 11 1 0 35 -6 20 -8 21 -8 5z"/>
<path d="M9341 4034 c-7 -25 -10 -48 -8 -51 3 -2 10 17 16 43 7 25 10 48 8 51
-3 2 -10 -17 -16 -43z"/>
<path d="M9432 4030 c0 -14 2 -19 5 -12 2 6 2 18 0 25 -3 6 -5 1 -5 -13z"/>
<path d="M712 4020 c0 -14 2 -19 5 -12 2 6 2 18 0 25 -3 6 -5 1 -5 -13z"/>
<path d="M1221 4004 c0 -11 3 -14 6 -6 3 7 2 16 -1 19 -3 4 -6 -2 -5 -13z"/>
<path d="M9422 3975 c0 -16 2 -22 5 -12 2 9 2 23 0 30 -3 6 -5 -1 -5 -18z"/>
<path d="M722 3970 c0 -14 4 -38 8 -55 7 -27 8 -27 8 -5 0 14 -4 39 -8 55 -7
27 -8 27 -8 5z"/>
<path d="M1231 3970 c0 -8 4 -22 9 -30 12 -18 12 -2 0 25 -6 13 -9 15 -9 5z"/>
<path d="M9316 3944 c-4 -14 -5 -28 -3 -31 3 -2 8 8 11 23 4 14 5 28 3 31 -3
2 -8 -8 -11 -23z"/>
<path d="M9391 3839 c-12 -56 -21 -103 -18 -105 2 -2 14 41 27 96 12 56 20
103 18 105 -2 3 -14 -41 -27 -96z"/>
<path d="M1247 3899 c4 -13 8 -18 11 -10 2 7 -1 18 -6 23 -8 8 -9 4 -5 -13z"/>
<path d="M9296 3874 c-4 -14 -5 -28 -3 -31 3 -2 8 8 11 23 4 14 5 28 3 31 -3
2 -8 -8 -11 -23z"/>
<path d="M742 3860 c0 -14 2 -19 5 -12 2 6 2 18 0 25 -3 6 -5 1 -5 -13z"/>
<path d="M1262 3860 c0 -8 6 -31 13 -50 7 -19 13 -28 13 -20 0 8 -6 31 -13 50
-7 19 -13 28 -13 20z"/>
<path d="M752 3820 c0 -8 4 -26 8 -40 6 -20 8 -21 8 -5 0 11 -3 29 -8 40 -5
12 -8 14 -8 5z"/>
<path d="M9252 3733 c-15 -48 -8 -55 8 -8 7 20 10 38 8 41 -3 2 -10 -13 -16
-33z"/>
<path d="M772 3735 c0 -11 3 -29 8 -40 11 -25 11 1 0 35 -6 20 -8 21 -8 5z"/>
<path d="M9361 3704 c0 -11 3 -14 6 -6 3 7 2 16 -1 19 -3 4 -6 -2 -5 -13z"/>
<path d="M9226 3665 c-9 -26 -7 -32 5 -12 6 10 9 21 6 23 -2 3 -7 -2 -11 -11z"/>
<path d="M9341 3634 c-7 -25 -10 -48 -8 -51 3 -2 10 17 16 43 7 25 10 48 8 51
-3 2 -10 -17 -16 -43z"/>
<path d="M791 3654 c0 -11 3 -14 6 -6 3 7 2 16 -1 19 -3 4 -6 -2 -5 -13z"/>
<path d="M801 3620 c0 -8 4 -24 9 -35 5 -13 9 -14 9 -5 0 8 -4 24 -9 35 -5 13
-9 14 -9 5z"/>
<path d="M1340 3615 c0 -5 5 -17 10 -25 5 -8 10 -10 10 -5 0 6 -5 17 -10 25
-5 8 -10 11 -10 5z"/>
<path d="M1360 3565 c0 -5 5 -17 10 -25 5 -8 10 -10 10 -5 0 6 -5 17 -10 25
-5 8 -10 11 -10 5z"/>
<path d="M9147 3458 c-26 -61 -45 -113 -44 -115 2 -2 25 47 51 108 26 61 46
112 44 114 -2 2 -25 -46 -51 -107z"/>
<path d="M9301 3499 c-7 -22 -11 -43 -8 -45 2 -2 9 14 16 37 7 22 11 43 8 45
-2 2 -9 -14 -16 -37z"/>
<path d="M831 3514 c0 -11 3 -14 6 -6 3 7 2 16 -1 19 -3 4 -6 -2 -5 -13z"/>
<path d="M1380 3515 c0 -5 5 -17 10 -25 5 -8 10 -10 10 -5 0 6 -5 17 -10 25
-5 8 -10 11 -10 5z"/>
<path d="M1400 3465 c0 -5 5 -17 10 -25 5 -8 10 -10 10 -5 0 6 -5 17 -10 25
-5 8 -10 11 -10 5z"/>
<path d="M9252 3353 c-44 -125 -45 -131 -34 -113 14 21 73 192 69 197 -3 2
-18 -36 -35 -84z"/>
<path d="M1421 3416 c-1 -11 91 -207 96 -203 2 2 -19 51 -46 108 -27 57 -50
100 -50 95z"/>
<path d="M5510 2114 c0 -1140 2 -1266 16 -1260 8 3 54 7 102 8 48 1 79 3 70 5
-17 4 -18 72 -18 1247 l0 1243 -69 12 c-39 6 -77 11 -85 11 -14 0 -16 -127
-16 -1266z"/>
<path d="M882 3365 c0 -5 6 -26 13 -45 7 -19 14 -28 14 -20 0 8 -6 29 -14 45
-7 17 -13 26 -13 20z"/>
<path d="M9037 3215 c-31 -63 -55 -115 -52 -115 7 0 117 221 113 226 -2 2 -29
-48 -61 -111z"/>
<path d="M5980 2111 l0 -1198 89 18 c291 59 674 180 877 276 l59 28 -3 931 -2
931 -283 62 c-241 52 -719 151 -733 151 -2 0 -4 -539 -4 -1199z"/>
<path d="M926 3240 c3 -14 11 -32 16 -40 6 -10 7 -7 2 10 -3 14 -11 32 -16 40
-6 10 -7 7 -2 -10z"/>
<path d="M1531 3180 c14 -31 19 -36 19 -24 0 6 -7 19 -16 30 -14 18 -14 18 -3
-6z"/>
<path d="M9181 3168 c-35 -90 -54 -135 -77 -179 -14 -28 -24 -53 -21 -55 4 -5
66 125 96 204 12 28 18 52 16 52 -3 0 -9 -10 -14 -22z"/>
<path d="M950 3175 c0 -5 5 -17 10 -25 5 -8 10 -10 10 -5 0 6 -5 17 -10 25 -5
8 -10 11 -10 5z"/>
<path d="M1596 3050 c27 -49 57 -99 67 -112 10 -13 4 2 -13 32 -17 30 -44 81
-61 113 -16 31 -32 57 -35 57 -3 0 16 -40 42 -90z"/>
<path d="M971 3128 c-1 -11 51 -129 56 -125 2 2 -10 33 -26 68 -16 35 -30 61
-30 57z"/>
<path d="M8945 3040 c-14 -27 -23 -50 -20 -50 2 0 16 23 30 50 14 28 23 50 20
50 -2 0 -16 -22 -30 -50z"/>
<path d="M8900 2960 c-6 -11 -8 -20 -6 -20 3 0 10 9 16 20 6 11 8 20 6 20 -3
0 -10 -9 -16 -20z"/>
<path d="M1040 2967 c0 -11 120 -247 125 -247 5 0 -112 239 -121 249 -2 2 -4
1 -4 -2z"/>
<path d="M7530 2243 l0 -715 28 17 c15 10 50 34 79 54 l52 36 1 641 0 642 -80
20 -80 20 0 -715z"/>
<path d="M8865 2904 c-9 -14 -15 -27 -13 -30 2 -2 12 10 22 26 21 37 15 40 -9
4z"/>
<path d="M9061 2893 c-10 -26 -10 -27 4 -9 8 11 15 23 15 28 0 15 -7 8 -19
-19z"/>
<path d="M1690 2891 c20 -39 101 -161 106 -161 6 0 4 3 -59 100 -51 79 -68
100 -47 61z"/>
<path d="M8799 2798 c-23 -35 -58 -85 -78 -113 -20 -27 -31 -46 -24 -42 13 8
156 217 149 217 -3 0 -24 -28 -47 -62z"/>
<path d="M9001 2780 c-23 -44 -40 -80 -37 -80 7 0 88 151 83 156 -2 2 -23 -32
-46 -76z"/>
<path d="M1806 2710 c14 -27 105 -150 110 -150 6 0 -84 130 -104 150 -13 13
-14 13 -6 0z"/>
<path d="M1187 2675 c9 -19 18 -33 21 -31 4 5 -26 66 -33 66 -3 0 3 -16 12
-35z"/>
<path d="M8930 2650 c-11 -22 -18 -40 -15 -40 2 0 14 18 25 40 11 22 18 40 15
40 -2 0 -14 -18 -25 -40z"/>
<path d="M8669 2613 c-13 -16 -12 -17 4 -4 16 13 21 21 13 21 -2 0 -10 -8 -17
-17z"/>
<path d="M1254 2555 c16 -27 35 -57 43 -65 9 -8 4 4 -11 27 -14 24 -26 47 -26
52 0 5 -8 15 -17 22 -11 9 -7 -3 11 -36z"/>
<path d="M8587 2504 c-37 -46 -65 -84 -63 -84 7 0 139 161 135 165 -3 2 -35
-34 -72 -81z"/>
<path d="M8867 2548 c-9 -18 -26 -49 -38 -68 -12 -19 -18 -30 -12 -25 20 18
84 125 75 125 -4 0 -16 -15 -25 -32z"/>
<path d="M1931 2533 c7 -12 15 -20 18 -17 3 2 -3 12 -13 22 -17 16 -18 16 -5
-5z"/>
<path d="M1320 2450 c6 -11 13 -20 16 -20 2 0 0 9 -6 20 -6 11 -13 20 -16 20
-2 0 0 -9 6 -20z"/>
<path d="M8781 2411 c-24 -33 -28 -56 -5 -26 20 26 36 55 30 55 -3 0 -14 -13
-25 -29z"/>
<path d="M8412 2295 c-51 -58 -89 -105 -85 -104 11 1 191 209 181 209 -2 0
-45 -47 -96 -105z"/>
<path d="M1429 2288 c17 -27 34 -48 36 -48 8 0 -36 68 -52 82 -10 7 -2 -8 16
-34z"/>
<path d="M8693 2278 c-43 -57 -66 -91 -58 -86 12 7 78 98 72 98 -3 0 -9 -6
-14 -12z"/>
<path d="M1496 2193 c22 -31 143 -182 236 -297 10 -11 18 -18 18 -14 0 4 -43
60 -95 123 -52 63 -113 140 -136 170 -23 30 -44 55 -46 55 -3 0 7 -17 23 -37z"/>
<path d="M8609 2163 c-13 -16 -12 -17 4 -4 16 13 21 21 13 21 -2 0 -10 -8 -17
-17z"/>
<path d="M8155 2023 c-77 -75 -127 -126 -111 -112 41 33 262 249 256 248 -3 0
-68 -61 -145 -136z"/>
<path d="M8560 2100 c-17 -22 -29 -40 -27 -40 3 0 20 18 37 40 17 22 29 40 27
40 -3 0 -20 -18 -37 -40z"/>
<path d="M8499 2023 l-24 -28 28 24 c25 23 32 31 24 31 -2 0 -14 -12 -28 -27z"/>
<path d="M8454 1968 l-19 -23 23 19 c12 11 22 21 22 23 0 8 -8 2 -26 -19z"/>
<path d="M8344 1843 c-49 -54 -78 -89 -65 -78 29 25 165 175 158 175 -2 0 -44
-44 -93 -97z"/>
<path d="M7960 1848 c-25 -22 -91 -76 -147 -120 -57 -44 -103 -82 -103 -84 0
-6 57 33 76 51 6 5 56 46 112 90 56 44 104 86 106 93 7 17 7 16 -44 -30z"/>
<path d="M1806 1818 c27 -29 53 -55 59 -57 5 -2 -15 21 -44 52 -30 32 -56 57
-59 57 -3 0 17 -24 44 -52z"/>
<path d="M1925 1691 c33 -34 114 -110 180 -168 116 -102 91 -74 -50 56 -38 35
-96 88 -129 119 l-61 56 60 -63z"/>
<path d="M8100 1596 c-47 -45 -131 -122 -188 -169 -57 -48 -99 -87 -95 -87 20
1 380 327 370 336 -1 1 -41 -34 -87 -80z"/>
<path d="M7438 1467 c-75 -48 -105 -74 -43 -37 79 47 115 70 115 75 0 8 -1 7
-72 -38z"/>
<path d="M3075 1475 c11 -9 29 -21 40 -26 l20 -10 -20 16 c-11 9 -29 21 -40
26 l-20 10 20 -16z"/>
<path d="M3140 1437 c0 -6 78 -57 87 -57 4 0 3 4 -2 8 -16 14 -85 54 -85 49z"/>
<path d="M2250 1395 c13 -14 26 -25 28 -25 3 0 -5 11 -18 25 -13 14 -26 25
-28 25 -3 0 5 -11 18 -25z"/>
<path d="M7298 1384 c-38 -20 -36 -28 2 -9 17 9 30 18 30 20 0 7 -1 6 -32 -11z"/>
<path d="M3240 1377 c0 -8 112 -69 116 -64 2 2 -23 18 -56 36 -33 18 -60 30
-60 28z"/>
<path d="M2294 1362 c14 -23 335 -258 406 -297 35 -19 -11 16 -105 80 -55 38
-138 98 -184 134 -110 86 -126 97 -117 83z"/>
<path d="M7188 1324 c-38 -19 -68 -37 -68 -39 0 -3 32 11 70 30 39 19 70 37
70 40 0 7 3 8 -72 -31z"/>
<path d="M7741 1289 c-68 -54 -65 -61 4 -8 50 38 62 49 51 49 -2 0 -26 -18
-55 -41z"/>
<path d="M3370 1305 c0 -7 81 -47 86 -43 2 3 -17 14 -41 26 -25 12 -45 20 -45
17z"/>
<path d="M7058 1259 c-21 -11 -38 -22 -38 -24 0 -5 79 32 89 41 12 11 -18 1
-51 -17z"/>
<path d="M7621 1201 c-29 -22 -58 -45 -65 -52 -12 -14 90 56 114 78 26 24 6
13 -49 -26z"/>
<path d="M3690 1157 c0 -7 131 -59 136 -54 3 2 -19 13 -48 25 -29 11 -61 23
-70 27 -10 4 -18 5 -18 2z"/>
<path d="M7497 1115 c-20 -14 -37 -28 -37 -31 0 -2 18 8 40 22 35 23 47 34 37
34 -1 0 -19 -11 -40 -25z"/>
<path d="M3865 1086 c17 -7 41 -16 55 -20 20 -5 19 -3 -5 8 -16 7 -41 16 -55
20 -20 5 -19 3 5 -8z"/>
<path d="M7413 1059 c-35 -22 -46 -37 -15 -20 22 13 58 40 52 41 -3 0 -20 -10
-37 -21z"/>
<path d="M2730 1048 c8 -8 33 -25 55 -37 34 -19 36 -20 16 -3 -34 27 -91 60
-71 40z"/>
<path d="M7235 954 c-44 -25 -84 -50 -90 -56 -5 -6 6 -2 25 9 19 11 61 35 93
52 31 18 57 34 57 37 0 6 0 6 -85 -42z"/>
<path d="M2830 986 c0 -6 177 -106 187 -106 9 0 -25 21 -119 74 -38 20 -68 35
-68 32z"/>
<path d="M5865 895 l-70 -14 63 6 c35 3 76 9 90 13 42 13 -2 10 -83 -5z"/>
<path d="M7088 874 c-39 -21 -35 -28 5 -8 37 19 44 24 31 24 -5 -1 -21 -8 -36
-16z"/>
<path d="M3030 875 c0 -3 32 -21 71 -40 73 -37 128 -61 118 -51 -10 10 -189
96 -189 91z"/>
<path d="M5733 873 c9 -2 25 -2 35 0 9 3 1 5 -18 5 -19 0 -27 -2 -17 -5z"/>
<path d="M5058 843 c34 -2 88 -2 120 0 31 2 3 3 -63 3 -66 0 -92 -1 -57 -3z"/>
<path d="M5298 843 c34 -2 88 -2 120 0 31 2 3 3 -63 3 -66 0 -92 -1 -57 -3z"/>
<path d="M7012 836 c-31 -18 -40 -29 -17 -20 25 9 63 34 50 33 -6 -1 -20 -7
-33 -13z"/>
<path d="M6860 760 c-30 -16 -50 -29 -45 -29 6 0 35 13 65 29 30 16 51 29 45
29 -5 0 -35 -13 -65 -29z"/>
<path d="M3290 745 c14 -8 30 -14 35 -14 6 0 -1 6 -15 14 -14 8 -29 14 -35 14
-5 0 1 -6 15 -14z"/>
<path d="M3340 726 c0 -2 7 -7 16 -10 8 -3 12 -2 9 4 -6 10 -25 14 -25 6z"/>
<path d="M6770 720 c-8 -5 -10 -10 -5 -10 6 0 17 5 25 10 8 5 11 10 5 10 -5 0
-17 -5 -25 -10z"/>
<path d="M3409 695 c18 -8 36 -15 40 -15 13 1 -45 29 -59 29 -8 0 0 -6 19 -14z"/>
<path d="M6630 665 c-72 -32 -51 -32 26 0 32 13 52 24 44 24 -8 0 -40 -11 -70
-24z"/>
<path d="M3520 650 c8 -5 20 -10 25 -10 6 0 3 5 -5 10 -8 5 -19 10 -25 10 -5
0 -3 -5 5 -10z"/>
<path d="M3570 630 c8 -5 22 -9 30 -9 10 0 8 3 -5 9 -27 12 -43 12 -25 0z"/>
<path d="M3646 605 c17 -7 44 -16 60 -20 25 -4 24 -3 -6 8 -19 8 -46 17 -60
20 -19 5 -17 3 6 -8z"/>
<path d="M6450 600 c-8 -5 -10 -10 -5 -10 6 0 17 5 25 10 8 5 11 10 5 10 -5 0
-17 -5 -25 -10z"/>
<path d="M6360 570 c-21 -7 -21 -8 -5 -9 11 0 27 4 35 9 18 11 5 11 -30 0z"/>
<path d="M3790 555 c19 -7 42 -13 50 -13 8 0 -1 6 -20 13 -19 7 -42 13 -50 13
-8 0 1 -6 20 -13z"/>
<path d="M6295 550 c-13 -6 -15 -9 -5 -9 8 0 22 4 30 9 18 12 2 12 -25 0z"/>
<path d="M3875 530 c11 -5 27 -9 35 -9 9 0 8 4 -5 9 -11 5 -27 9 -35 9 -9 0
-8 -4 5 -9z"/>
<path d="M6225 530 c-13 -5 -14 -9 -5 -9 8 0 24 4 35 9 13 5 14 9 5 9 -8 0
-24 -4 -35 -9z"/>
<path d="M6178 513 c7 -3 16 -2 19 1 4 3 -2 6 -13 5 -11 0 -14 -3 -6 -6z"/>
<path d="M3968 503 c6 -2 18 -2 25 0 6 3 1 5 -13 5 -14 0 -19 -2 -12 -5z"/>
<path d="M6085 495 c-27 -8 -54 -14 -59 -15 -5 0 -7 -2 -4 -5 5 -5 129 23 137
31 8 8 -24 3 -74 -11z"/>
<path d="M4018 493 c7 -3 16 -2 19 1 4 3 -2 6 -13 5 -11 0 -14 -3 -6 -6z"/>
<path d="M4058 483 c7 -3 16 -2 19 1 4 3 -2 6 -13 5 -11 0 -14 -3 -6 -6z"/>
<path d="M4155 460 c39 -10 81 -18 95 -18 14 0 -11 8 -55 18 -102 24 -132 23
-40 0z"/>
<path d="M5980 470 c-23 -7 -23 -8 -3 -9 12 -1 25 4 28 9 3 6 5 10 3 9 -2 -1
-14 -5 -28 -9z"/>
<path d="M5928 453 c7 -3 16 -2 19 1 4 3 -2 6 -13 5 -11 0 -14 -3 -6 -6z"/>
<path d="M5835 440 c-27 -7 -27 -8 -5 -8 14 0 39 4 55 8 27 7 27 8 5 8 -14 0
-38 -4 -55 -8z"/>
<path d="M4288 433 c6 -2 18 -2 25 0 6 3 1 5 -13 5 -14 0 -19 -2 -12 -5z"/>
<path d="M4353 423 c9 -2 23 -2 30 0 6 3 -1 5 -18 5 -16 0 -22 -2 -12 -5z"/>
<path d="M5768 423 c6 -2 18 -2 25 0 6 3 1 5 -13 5 -14 0 -19 -2 -12 -5z"/>
<path d="M4413 413 c9 -2 23 -2 30 0 6 3 -1 5 -18 5 -16 0 -22 -2 -12 -5z"/>
<path d="M5645 410 l-40 -7 35 0 c19 -1 49 3 65 7 27 7 27 8 5 7 -14 0 -43 -3
-65 -7z"/>
<path d="M4473 403 c9 -2 25 -2 35 0 9 3 1 5 -18 5 -19 0 -27 -2 -17 -5z"/>
<path d="M4563 393 c9 -2 25 -2 35 0 9 3 1 5 -18 5 -19 0 -27 -2 -17 -5z"/>
<path d="M5553 393 c9 -2 23 -2 30 0 6 3 -1 5 -18 5 -16 0 -22 -2 -12 -5z"/>
<path d="M4653 383 c15 -2 39 -2 55 0 15 2 2 4 -28 4 -30 0 -43 -2 -27 -4z"/>
<path d="M5433 383 c15 -2 37 -2 50 0 12 2 0 4 -28 4 -27 0 -38 -2 -22 -4z"/>
<path d="M4767 373 c18 -2 50 -2 70 0 21 2 7 4 -32 4 -38 0 -55 -2 -38 -4z"/>
<path d="M5273 373 c20 -2 54 -2 75 0 20 2 3 4 -38 4 -41 0 -58 -2 -37 -4z"/>
<path d="M4983 363 c42 -2 112 -2 155 0 42 1 7 3 -78 3 -85 0 -120 -2 -77 -3z"/>
</g>
</svg>
